                                                                        S      1
,,20Hthin scuba endcap v7,18HPOP_endcap_derated,7Hunknown,7Hunknown,32, G      1
38,7,99,15,,1.,2,2HMM,1,0.08,15H20231204.125250,0.01,10000.,7Hunknown,7HG      2
unknown,11,0,15H20231110.170152;                                        G      3
     186       1                                                00000000D      1
     186            -125       1       0                               0D      2
     514       2                                                00010000D      3
     514                       1       1                               0D      4
     510       3                                                00010000D      5
     510            -125       1       1                               0D      6
     510       4                                                00010000D      7
     510            -125       1       1                               0D      8
     510       5                                                00010000D      9
     510            -125       1       1                               0D     10
     510       6                                                00010000D     11
     510            -125       1       1                               0D     12
     510       7                                                00010000D     13
     510            -125       1       1                               0D     14
     510       8                                                00010000D     15
     510            -125       1       1                               0D     16
     510       9                                                00010000D     17
     510            -125       1       1                               0D     18
     510      10                                                00010000D     19
     510            -125       1       1                               0D     20
     510      11                                                00010000D     21
     510            -125       1       1                               0D     22
     510      12                                                00010000D     23
     510            -125       1       1                               0D     24
     510      13                                                00010000D     25
     510            -125       1       1                               0D     26
     508      14                                                00010000D     27
     508                       1       1                               0D     28
     508      15                                                00010000D     29
     508                       1       1                               0D     30
     508      16                                                00010000D     31
     508                       1       1                               0D     32
     508      17                                                00010000D     33
     508                       1       1                               0D     34
     508      18                                                00010000D     35
     508                       2       1                               0D     36
     508      20                                                00010000D     37
     508                       2       1                               0D     38
     508      22                                                00010000D     39
     508                       1       1                               0D     40
     508      23                                                00010000D     41
     508                       1       1                               0D     42
     508      24                                                00010000D     43
     508                       1       1                               0D     44
     508      25                                                00010000D     45
     508                       1       1                               0D     46
     508      26                                                00010000D     47
     508                       1       1                               0D     48
     508      27                                                00010000D     49
     508                       1       1                               0D     50
     508      28                                                00010000D     51
     508                       1       1                               0D     52
     508      29                                                00010000D     53
     508                       1       1                               0D     54
     508      30                                                00010000D     55
     508                       1       1                               0D     56
     126      31                                                00010000D     57
     126       0              10       0                               0D     58
     126      41                                                00010000D     59
     126       0               4       0                               0D     60
     126      45                                                00010000D     61
     126       0              10       0                               0D     62
     126      55                                                00010000D     63
     126       0               6       0                               0D     64
     126      61                                                00010000D     65
     126       0               6       0                               0D     66
     126      67                                                00010000D     67
     126       0              10       0                               0D     68
     126      77                                                00010000D     69
     126       0               2       0                               0D     70
     126      79                                                00010000D     71
     126       0               5       0                               0D     72
     126      84                                                00010000D     73
     126       0               5       0                               0D     74
     126      89                                                00010000D     75
     126       0               6       0                               0D     76
     126      95                                                00010000D     77
     126       0              10       0                               0D     78
     126     105                                                00010000D     79
     126       0               2       0                               0D     80
     126     107                                                00010000D     81
     126       0               9       0                               0D     82
     126     116                                                00010000D     83
     126       0               9       0                               0D     84
     126     125                                                00010000D     85
     126       0              10       0                               0D     86
     126     135                                                00010000D     87
     126       0               5       0                               0D     88
     126     140                                                00010000D     89
     126       0               2       0                               0D     90
     126     142                                                00010000D     91
     126       0              10       0                               0D     92
     126     152                                                00010000D     93
     126       0               4       0                               0D     94
     126     156                                                00010000D     95
     126       0               6       0                               0D     96
     128     162                                                00010000D     97
     128       0    -125      19       0                               0D     98
     128     181                                                00010000D     99
     128       0    -125       4       0                               0D    100
     128     185                                                00010000D    101
     128       0    -125      13       0                               0D    102
     128     198                                                00010000D    103
     128       0    -125      20       0                               0D    104
     128     218                                                00010000D    105
     128       0    -125      13       0                               0D    106
     128     231                                                00010000D    107
     128       0    -125       3       0                               0D    108
     128     234                                                00010000D    109
     128       0    -125       3       0                               0D    110
     128     237                                                00010000D    111
     128       0    -125      12       0                               0D    112
     128     249                                                00010000D    113
     128       0    -125      21       0                               0D    114
     128     270                                                00010000D    115
     128       0    -125      29       0                               0D    116
     128     299                                                00010000D    117
     128       0    -125       4       0                               0D    118
     502     303                                                00010000D    119
     502                       8       1                               0D    120
     504     311                                                00010001D    121
     504                       6       1                               0D    122
     406     317                                                00000000D    123
     406                       1      15                               0D    124
     314     318                                                00000200D    125
     314                       2       0                               0D    126
186,3,1,0,0,1,123;                                                     1P      1
514,11,5,1,7,1,9,1,11,1,13,1,15,1,17,1,19,1,21,1,23,1,25,1;            3P      2
510,97,1,1,27;                                                         5P      3
510,99,2,1,29,31;                                                      7P      4
510,101,1,1,33;                                                        9P      5
510,103,1,1,35;                                                       11P      6
510,105,1,1,37;                                                       13P      7
510,107,2,1,39,41;                                                    15P      8
510,109,2,1,43,45;                                                    17P      9
510,111,1,1,47;                                                       19P     10
510,113,1,1,49;                                                       21P     11
510,115,1,1,51;                                                       23P     12
510,117,2,1,53,55;                                                    25P     13
508,4,0,121,1,1,0,0,121,2,1,0,0,121,3,1,0,0,121,2,0,0;                27P     14
508,1,0,121,1,0,0;                                                    29P     15
508,2,0,121,4,0,0,0,121,5,0,0;                                        31P     16
508,4,0,121,6,0,0,0,121,7,1,0,0,121,3,0,0,0,121,7,0,0;                33P     17
508,6,0,121,4,1,0,0,121,8,1,0,0,121,9,1,0,0,121,10,1,0,0,121,8,       35P     18
0,0,0,121,5,1,0;                                                      35P     19
508,5,0,121,11,0,0,0,121,12,1,0,0,121,9,0,0,0,121,10,0,0,0,121,       37P     20
12,0,0;                                                               37P     21
508,1,0,121,13,1,0;                                                   39P     22
508,1,0,121,6,1,0;                                                    41P     23
508,1,0,121,14,1,0;                                                   43P     24
508,2,0,121,15,0,0,0,121,16,0,0;                                      45P     25
508,4,0,121,14,0,0,0,121,17,1,0,0,121,13,0,0,0,121,17,0,0;            47P     26
508,3,0,121,18,1,0,0,121,19,0,0,0,121,19,1,0;                         49P     27
508,4,0,121,15,1,0,0,121,20,0,0,0,121,20,1,0,0,121,16,1,0;            51P     28
508,1,0,121,11,1,0;                                                   53P     29
508,1,0,121,18,0,0;                                                   55P     30
126,8,2,0,1,0,0,-3.14159265358979,-3.14159265358979,                  57P     31
-3.14159265358979,-1.5707963267949,-1.5707963267949,0.,0.,            57P     32
1.5707963267949,1.5707963267949,3.14159265358979,                     57P     33
3.14159265358979,3.14159265358979,1.,0.707106781186548,1.,            57P     34
0.707106781186548,1.,0.707106781186548,1.,0.707106781186548,1.,       57P     35
-31.95,-3.91274652327579D-15,2.794,-31.95,-31.95,2.794,               57P     36
1.9563732616379D-15,-31.95,2.794,31.95,-31.95,2.794,31.95,0.,         57P     37
2.794,31.95,31.95,2.794,1.9563732616379D-15,31.95,2.794,-31.95,       57P     38
31.95,2.794,-31.95,3.91274652327579D-15,2.794,-3.14159265358979,      57P     39
3.14159265358979,0.,0.,0.;                                            57P     40
126,2,2,0,0,0,0,-1.5707963267949,-1.5707963267949,                    59P     41
-1.5707963267949,0.,0.,0.,1.,0.707106781186526,1.,-31.95,0.,          59P     42
2.794,-32.05,0.,2.794,-32.05,0.,2.694,-1.5707963267949,0.,0.,0.,      59P     43
0.;                                                                   59P     44
126,8,2,0,1,0,0,-3.14159265358979,-3.14159265358979,                  61P     45
-3.14159265358979,-1.5707963267949,-1.5707963267949,0.,0.,            61P     46
1.5707963267949,1.5707963267949,3.14159265358979,                     61P     47
3.14159265358979,3.14159265358979,1.,0.707106781186548,1.,            61P     48
0.707106781186548,1.,0.707106781186548,1.,0.707106781186548,1.,       61P     49
-32.05,3.92499299126727D-15,2.694,-32.05,32.05,2.694,                 61P     50
1.96249649563363D-15,32.05,2.694,32.05,32.05,2.694,32.05,0.,          61P     51
2.694,32.05,-32.05,2.694,1.96249649563363D-15,-32.05,2.694,           61P     52
-32.05,-32.05,2.694,-32.05,-3.92499299126727D-15,2.694,               61P     53
-3.14159265358979,3.14159265358979,0.,0.,0.;                          61P     54
126,4,2,0,0,0,0,-3.14159265358979,-3.14159265358979,                  63P     55
-3.14159265358979,-1.5707963267949,-1.5707963267949,0.,0.,0.,1.,      63P     56
0.707106781186548,1.,0.707106781186548,1.,-28.47,                     63P     57
3.48656943717251D-15,2.794,-28.47,28.47,2.794,                        63P     58
1.74328471858626D-15,28.47,2.794,28.47,28.47,2.794,28.47,0.,          63P     59
2.794,-3.14159265358979,0.,0.,0.,0.;                                  63P     60
126,4,2,0,0,0,0,0.,0.,0.,1.5707963267949,1.5707963267949,             65P     61
3.14159265358979,3.14159265358979,3.14159265358979,1.,                65P     62
0.707106781186548,1.,0.707106781186548,1.,28.47,0.,2.794,28.47,       65P     63
-28.47,2.794,1.74328471858626D-15,-28.47,2.794,-28.47,-28.47,         65P     64
2.794,-28.47,-3.48656943717251D-15,2.794,0.,3.14159265358979,0.,      65P     65
0.,0.;                                                                65P     66
126,8,2,0,1,0,0,-3.14159265358979,-3.14159265358979,                  67P     67
-3.14159265358979,-1.5707963267949,-1.5707963267949,0.,0.,            67P     68
1.5707963267949,1.5707963267949,3.14159265358979,                     67P     69
3.14159265358979,3.14159265358979,1.,0.707106781186548,1.,            67P     70
0.707106781186548,1.,0.707106781186548,1.,0.707106781186548,1.,       67P     71
-32.05,-3.92499299126727D-15,0.,-32.05,-32.05,0.,                     67P     72
1.96249649563363D-15,-32.05,0.,32.05,-32.05,0.,32.05,0.,0.,           67P     73
32.05,32.05,0.,1.96249649563363D-15,32.05,0.,-32.05,32.05,0.,         67P     74
-32.05,3.92499299126727D-15,0.,-3.14159265358979,                     67P     75
3.14159265358979,0.,0.,0.;                                            67P     76
126,1,1,0,0,1,0,0.,0.,0.0840561622464898,0.0840561622464898,1.,       69P     77
1.,-32.05,0.,0.,-32.05,0.,2.694,0.,0.0840561622464898,0.,0.,0.;       69P     78
126,2,2,0,0,0,0,1.57079632679486,1.57079632679486,                    71P     79
1.57079632679486,3.14159265358979,3.14159265358979,                   71P     80
3.14159265358979,1.,0.707106781186566,1.,28.47,0.,2.794,28.37,        71P     81
0.,2.794,28.37,0.,2.694,1.57079632679486,3.14159265358979,0.,0.,      71P     82
0.;                                                                   71P     83
126,4,2,0,0,0,0,0.,0.,0.,1.5707963267949,1.5707963267949,             73P     84
3.14159265358979,3.14159265358979,3.14159265358979,1.,                73P     85
0.707106781186548,1.,0.707106781186548,1.,28.37,0.,2.694,28.37,       73P     86
28.37,2.694,1.73716148459052D-15,28.37,2.694,-28.37,28.37,2.694,      73P     87
-28.37,3.47432296918104D-15,2.694,0.,3.14159265358979,0.,0.,0.;       73P     88
126,4,2,0,0,0,0,-3.14159265358979,-3.14159265358979,                  75P     89
-3.14159265358979,-1.5707963267949,-1.5707963267949,0.,0.,0.,1.,      75P     90
0.707106781186548,1.,0.707106781186548,1.,-28.37,                     75P     91
-3.47432296918104D-15,2.694,-28.37,-28.37,2.694,                      75P     92
1.73716148459052D-15,-28.37,2.694,28.37,-28.37,2.694,28.37,0.,        75P     93
2.694,-3.14159265358979,0.,0.,0.,0.;                                  75P     94
126,8,2,0,1,0,0,-3.14159265358979,-3.14159265358979,                  77P     95
-3.14159265358979,-1.5707963267949,-1.5707963267949,0.,0.,            77P     96
1.5707963267949,1.5707963267949,3.14159265358979,                     77P     97
3.14159265358979,3.14159265358979,1.,0.707106781186548,1.,            77P     98
0.707106781186548,1.,0.707106781186548,1.,0.707106781186548,1.,       77P     99
-28.37,3.47432296918104D-15,0.,-28.37,28.37,0.,                       77P    100
1.73716148459052D-15,28.37,0.,28.37,28.37,0.,28.37,0.,0.,28.37,       77P    101
-28.37,0.,1.73716148459052D-15,-28.37,0.,-28.37,-28.37,0.,            77P    102
-28.37,-3.47432296918104D-15,0.,-3.14159265358979,                    77P    103
3.14159265358979,0.,0.,0.;                                            77P    104
126,1,1,0,0,1,0,0.,0.,0.0949594642227705,0.0949594642227705,1.,       79P    105
1.,-28.37,0.,0.,-28.37,0.,2.694,0.,0.0949594642227705,0.,0.,0.;       79P    106
126,8,2,0,1,0,0,-3.14159265358979,-3.14159265358979,                  81P    107
-3.14159265358979,-1.5707963267949,-1.5707963267949,0.,0.,            81P    108
1.5707963267949,1.5707963267949,3.14159265358979,                     81P    109
3.14159265358979,3.14159265358979,1.,0.707106781186548,1.,            81P    110
0.707106781186548,1.,0.707106781186548,1.,0.707106781186548,1.,       81P    111
-37.,4.53119315684521D-15,0.,-37.,37.,0.,2.2655965784226D-15,         81P    112
37.,0.,37.,37.,0.,37.,0.,0.,37.,-37.,0.,2.2655965784226D-15,          81P    113
-37.,0.,-37.,-37.,0.,-37.,-4.53119315684521D-15,0.,                   81P    114
-3.14159265358979,3.14159265358979,0.,0.,0.;                          81P    115
126,8,2,0,1,0,0,-3.14159265358979,-3.14159265358979,                  83P    116
-3.14159265358979,-1.5707963267949,-1.5707963267949,0.,0.,            83P    117
1.5707963267949,1.5707963267949,3.14159265358979,                     83P    118
3.14159265358979,3.14159265358979,1.,0.707106781186548,1.,            83P    119
0.707106781186548,1.,0.707106781186548,1.,0.707106781186548,1.,       83P    120
-37.,-4.53119315684521D-15,5.,-37.,-37.,5.,2.2655965784226D-15,       83P    121
-37.,5.,37.,-37.,5.,37.,0.,5.,37.,37.,5.,2.2655965784226D-15,         83P    122
37.,5.,-37.,37.,5.,-37.,4.53119315684521D-15,5.,                      83P    123
-3.14159265358979,3.14159265358979,0.,0.,0.;                          83P    124
126,6,2,0,0,0,0,-3.14159265358979,-3.14159265358979,                  85P    125
-3.14159265358979,-1.5707963267949,-1.5707963267949,0.,0.,            85P    126
1.5707963267949,1.5707963267949,1.5707963267949,1.,                   85P    127
0.707106781186548,1.,0.707106781186547,1.,0.707106781186547,1.,       85P    128
3.87073639360677D-15,-31.6069612585582,5.,31.6069612585582,           85P    129
-31.6069612585582,5.,31.6069612585582,1.93536819680339D-15,5.,        85P    130
31.6069612585582,31.6069612585582,5.,0.,31.6069612585582,5.,          85P    131
-31.6069612585582,31.6069612585582,5.,-31.6069612585582,              85P    132
1.93536819680339D-15,5.,-3.14159265358979,1.5707963267949,0.,0.,      85P    133
0.;                                                                   85P    134
126,2,2,0,0,0,0,1.5707963267949,1.5707963267949,1.5707963267949,      87P    135
3.14159265358979,3.14159265358979,3.14159265358979,1.,                87P    136
0.707106781186548,1.,-31.6069612585582,1.93536819680339D-15,5.,       87P    137
-31.6069612585582,-31.6069612585582,5.,-3.87073639360677D-15,         87P    138
-31.6069612585582,5.,1.5707963267949,3.14159265358979,0.,0.,0.;       87P    139
126,1,1,0,0,1,0,-0.135135135135135,-0.135135135135135,0.,0.,1.,       89P    140
1.,-37.,0.,5.,-37.,0.,0.,-0.135135135135135,0.,0.,0.,0.;              89P    141
126,8,2,0,1,0,0,-3.14159265358979,-3.14159265358979,                  91P    142
-3.14159265358979,-1.5707963267949,-1.5707963267949,0.,0.,            91P    143
1.5707963267949,1.5707963267949,3.14159265358979,                     91P    144
3.14159265358979,3.14159265358979,1.,0.707106781186548,1.,            91P    145
0.707106781186548,1.,0.707106781186548,1.,0.707106781186548,1.,       91P    146
-25.65,3.14121903981296D-15,0.,-25.65,25.65,0.,                       91P    147
1.57060951990648D-15,25.65,0.,25.65,25.65,0.,25.65,0.,0.,25.65,       91P    148
-25.65,0.,1.57060951990648D-15,-25.65,0.,-25.65,-25.65,0.,            91P    149
-25.65,-3.14121903981296D-15,0.,-3.14159265358979,                    91P    150
3.14159265358979,0.,0.,0.;                                            91P    151
126,2,2,0,0,0,0,-1.5707963267949,-1.5707963267949,                    93P    152
-1.5707963267949,0.,0.,0.,1.,0.707106781186548,1.,                    93P    153
-1.57060951990648D-15,0.,25.65,-25.65,0.,25.65,-25.65,0.,0.,          93P    154
-1.5707963267949,0.,0.,0.,0.;                                         93P    155
126,2,2,0,0,0,0,-1.5707963267949,-1.5707963267949,                    95P    156
-1.5707963267949,-0.156892871020461,-0.156892871020461,               95P    157
-0.156892871020461,1.,0.760345316287278,1.,                           95P    158
-1.95943487863577D-15,0.,32.,-27.335750277672,0.,32.,                 95P    159
-31.6069612585582,0.,5.,-1.5707963267949,-0.156892871020461,0.,       95P    160
0.,0.;                                                                95P    161
128,2,8,2,2,0,1,0,0,1,0.,0.,0.,1.5707963267949,1.5707963267949,       97P    162
1.5707963267949,-3.14159265358979,-3.14159265358979,                  97P    163
-3.14159265358979,-1.5707963267949,-1.5707963267949,0.,0.,            97P    164
1.5707963267949,1.5707963267949,3.14159265358979,                     97P    165
3.14159265358979,3.14159265358979,1.,0.707106781186526,1.,            97P    166
0.707106781186548,0.499999999999985,0.707106781186548,1.,             97P    167
0.707106781186526,1.,0.707106781186548,0.499999999999985,             97P    168
0.707106781186548,1.,0.707106781186526,1.,0.707106781186548,          97P    169
0.499999999999985,0.707106781186548,1.,0.707106781186526,1.,          97P    170
0.707106781186548,0.499999999999985,0.707106781186548,1.,             97P    171
0.707106781186526,1.,-32.05,0.,2.694,-32.05,0.,2.794,-31.95,0.,       97P    172
2.794,-32.05,-32.05,2.694,-32.05,-32.05,2.794,-31.95,-31.95,          97P    173
2.794,0.,-32.05,2.694,0.,-32.05,2.794,0.,-31.95,2.794,32.05,          97P    174
-32.05,2.694,32.05,-32.05,2.794,31.95,-31.95,2.794,32.05,0.,          97P    175
2.694,32.05,0.,2.794,31.95,0.,2.794,32.05,32.05,2.694,32.05,          97P    176
32.05,2.794,31.95,31.95,2.794,0.,32.05,2.694,0.,32.05,2.794,0.,       97P    177
31.95,2.794,-32.05,32.05,2.694,-32.05,32.05,2.794,-31.95,31.95,       97P    178
2.794,-32.05,0.,2.694,-32.05,0.,2.794,-31.95,0.,2.794,0.,             97P    179
1.5707963267949,-3.14159265358979,3.14159265358979;                   97P    180
128,1,1,1,1,0,0,1,0,0,-3.196,-3.196,3.196,3.196,-3.196,-3.196,        99P    181
3.196,3.196,1.,1.,1.,1.,-31.96,31.96,2.794,31.96,31.96,2.794,         99P    182
-31.96,-31.96,2.794,31.96,-31.96,2.794,-3.196,3.196,-3.196,           99P    183
3.196;                                                                99P    184
128,1,8,1,2,0,1,0,0,1,0.,0.,0.0840561622464898,                      101P    185
0.0840561622464898,-3.14159265358979,-3.14159265358979,              101P    186
-3.14159265358979,-1.5707963267949,-1.5707963267949,0.,0.,           101P    187
1.5707963267949,1.5707963267949,3.14159265358979,                    101P    188
3.14159265358979,3.14159265358979,1.,1.,0.707106781186548,           101P    189
0.707106781186548,1.,1.,0.707106781186548,0.707106781186548,1.,      101P    190
1.,0.707106781186548,0.707106781186548,1.,1.,0.707106781186548,      101P    191
0.707106781186548,1.,1.,-32.05,0.,0.,-32.05,0.,2.694,-32.05,         101P    192
-32.05,0.,-32.05,-32.05,2.694,0.,-32.05,0.,0.,-32.05,2.694,          101P    193
32.05,-32.05,0.,32.05,-32.05,2.694,32.05,0.,0.,32.05,0.,2.694,       101P    194
32.05,32.05,0.,32.05,32.05,2.694,0.,32.05,0.,0.,32.05,2.694,         101P    195
-32.05,32.05,0.,-32.05,32.05,2.694,-32.05,0.,0.,-32.05,0.,2.694,     101P    196
0.,0.0840561622464898,-3.14159265358979,3.14159265358979;            101P    197
128,2,8,2,2,0,1,0,0,1,-3.14159265358979,-3.14159265358979,           103P    198
-3.14159265358979,-1.57079632679486,-1.57079632679486,               103P    199
-1.57079632679486,-3.14159265358979,-3.14159265358979,               103P    200
-3.14159265358979,-1.5707963267949,-1.5707963267949,0.,0.,           103P    201
1.5707963267949,1.5707963267949,3.14159265358979,                    103P    202
3.14159265358979,3.14159265358979,1.,0.707106781186566,1.,           103P    203
0.707106781186548,0.500000000000013,0.707106781186548,1.,            103P    204
0.707106781186566,1.,0.707106781186548,0.500000000000013,            103P    205
0.707106781186548,1.,0.707106781186566,1.,0.707106781186548,         103P    206
0.500000000000013,0.707106781186548,1.,0.707106781186566,1.,         103P    207
0.707106781186548,0.500000000000013,0.707106781186548,1.,            103P    208
0.707106781186566,1.,28.37,0.,2.694,28.37,0.,2.794,28.47,0.,         103P    209
2.794,28.37,-28.37,2.694,28.37,-28.37,2.794,28.47,-28.47,2.794,      103P    210
0.,-28.37,2.694,0.,-28.37,2.794,0.,-28.47,2.794,-28.37,-28.37,       103P    211
2.694,-28.37,-28.37,2.794,-28.47,-28.47,2.794,-28.37,0.,2.694,       103P    212
-28.37,0.,2.794,-28.47,0.,2.794,-28.37,28.37,2.694,-28.37,28.37,     103P    213
2.794,-28.47,28.47,2.794,0.,28.37,2.694,0.,28.37,2.794,0.,28.47,     103P    214
2.794,28.37,28.37,2.694,28.37,28.37,2.794,28.47,28.47,2.794,         103P    215
28.37,0.,2.694,28.37,0.,2.794,28.47,0.,2.794,-3.14159265358979,      103P    216
-1.57079632679486,-3.14159265358979,3.14159265358979;                103P    217
128,1,8,1,2,0,1,0,0,1,0.,0.,0.0949594642227705,                      105P    218
0.0949594642227705,-3.14159265358979,-3.14159265358979,              105P    219
-3.14159265358979,-1.5707963267949,-1.5707963267949,0.,0.,           105P    220
1.5707963267949,1.5707963267949,3.14159265358979,                    105P    221
3.14159265358979,3.14159265358979,1.,1.,0.707106781186548,           105P    222
0.707106781186548,1.,1.,0.707106781186548,0.707106781186548,1.,      105P    223
1.,0.707106781186548,0.707106781186548,1.,1.,0.707106781186548,      105P    224
0.707106781186548,1.,1.,-28.37,0.,2.694,-28.37,0.,0.,-28.37,         105P    225
-28.37,2.694,-28.37,-28.37,0.,0.,-28.37,2.694,0.,-28.37,0.,          105P    226
28.37,-28.37,2.694,28.37,-28.37,0.,28.37,0.,2.694,28.37,0.,0.,       105P    227
28.37,28.37,2.694,28.37,28.37,0.,0.,28.37,2.694,0.,28.37,0.,         105P    228
-28.37,28.37,2.694,-28.37,28.37,0.,-28.37,0.,2.694,-28.37,0.,0.,     105P    229
0.,0.0949594642227705,-3.14159265358979,3.14159265358979;            105P    230
128,1,1,1,1,0,0,1,0,0,-6.266,-6.266,1.136,1.136,-3.701,-3.701,       107P    231
3.701,3.701,1.,1.,1.,1.,37.01,-37.01,0.,-37.01,-37.01,0.,37.01,      107P    232
37.01,0.,-37.01,37.01,0.,-6.266,1.136,-3.701,3.701;                  107P    233
128,1,1,1,1,0,0,1,0,0,-3.701,-3.701,3.701,3.701,-3.701,-3.701,       109P    234
3.701,3.701,1.,1.,1.,1.,37.01,37.01,5.,-37.01,37.01,5.,37.01,        109P    235
-37.01,5.,-37.01,-37.01,5.,-3.701,3.701,-3.701,3.701;                109P    236
128,1,8,1,2,0,1,0,0,1,0.,0.,0.135135135135135,0.135135135135135,     111P    237
-3.14159265358979,-3.14159265358979,-3.14159265358979,               111P    238
-1.5707963267949,-1.5707963267949,0.,0.,1.5707963267949,             111P    239
1.5707963267949,3.14159265358979,3.14159265358979,                   111P    240
3.14159265358979,1.,1.,0.707106781186548,0.707106781186548,1.,       111P    241
1.,0.707106781186548,0.707106781186548,1.,1.,0.707106781186548,      111P    242
0.707106781186548,1.,1.,0.707106781186548,0.707106781186548,1.,      111P    243
1.,-37.,0.,5.,-37.,0.,0.,-37.,-37.,5.,-37.,-37.,0.,0.,-37.,5.,       111P    244
0.,-37.,0.,37.,-37.,5.,37.,-37.,0.,37.,0.,5.,37.,0.,0.,37.,37.,      111P    245
5.,37.,37.,0.,0.,37.,5.,0.,37.,0.,-37.,37.,5.,-37.,37.,0.,-37.,      111P    246
0.,5.,-37.,0.,0.,0.,0.135135135135135,-3.14159265358979,             111P    247
3.14159265358979;                                                    111P    248
128,2,8,2,2,0,1,0,0,1,0.,0.,0.,1.5707963267949,1.5707963267949,      113P    249
1.5707963267949,-3.14159265358979,-3.14159265358979,                 113P    250
-3.14159265358979,-1.5707963267949,-1.5707963267949,0.,0.,           113P    251
1.5707963267949,1.5707963267949,3.14159265358979,                    113P    252
3.14159265358979,3.14159265358979,1.,0.707106781186548,1.,           113P    253
0.707106781186548,0.5,0.707106781186548,1.,0.707106781186548,1.,     113P    254
0.707106781186548,0.5,0.707106781186548,1.,0.707106781186548,1.,     113P    255
0.707106781186548,0.5,0.707106781186548,1.,0.707106781186548,1.,     113P    256
0.707106781186548,0.5,0.707106781186548,1.,0.707106781186548,1.,     113P    257
-25.65,0.,0.,-25.65,0.,25.65,-1.57060951990648D-15,0.,25.65,         113P    258
-25.65,-25.65,0.,-25.65,-25.65,25.65,-1.57060951990648D-15,          113P    259
-1.57060951990648D-15,25.65,0.,-25.65,0.,0.,-25.65,25.65,0.,         113P    260
-1.57060951990648D-15,25.65,25.65,-25.65,0.,25.65,-25.65,25.65,      113P    261
1.57060951990648D-15,-1.57060951990648D-15,25.65,25.65,0.,0.,        113P    262
25.65,0.,25.65,1.57060951990648D-15,0.,25.65,25.65,25.65,0.,         113P    263
25.65,25.65,25.65,1.57060951990648D-15,1.57060951990648D-15,         113P    264
25.65,0.,25.65,0.,0.,25.65,25.65,0.,1.57060951990648D-15,25.65,      113P    265
-25.65,25.65,0.,-25.65,25.65,25.65,-1.57060951990648D-15,            113P    266
1.57060951990648D-15,25.65,-25.65,0.,0.,-25.65,0.,25.65,             113P    267
-1.57060951990648D-15,0.,25.65,0.,1.5707963267949,                   113P    268
-3.14159265358979,3.14159265358979;                                  113P    269
128,2,8,2,2,0,1,0,0,1,0.156892871020461,0.156892871020461,           115P    270
0.156892871020461,1.5707963267949,1.5707963267949,                   115P    271
1.5707963267949,-3.14159265358979,-3.14159265358979,                 115P    272
-3.14159265358979,-1.5707963267949,-1.5707963267949,0.,0.,           115P    273
1.5707963267949,1.5707963267949,3.14159265358979,                    115P    274
3.14159265358979,3.14159265358979,1.,0.760345316287278,1.,           115P    275
0.707106781186548,0.537645329190164,0.707106781186548,1.,            115P    276
0.760345316287278,1.,0.707106781186548,0.537645329190164,            115P    277
0.707106781186548,1.,0.760345316287278,1.,0.707106781186548,         115P    278
0.537645329190164,0.707106781186548,1.,0.760345316287278,1.,         115P    279
0.707106781186548,0.537645329190164,0.707106781186548,1.,            115P    280
0.760345316287278,1.,-1.95943487863577D-15,0.,32.,                   115P    281
-27.335750277672,0.,32.,-31.6069612585582,0.,5.,                     115P    282
-1.95943487863576D-15,-1.95943487863576D-15,32.,                     115P    283
-27.335750277672,-27.335750277672,32.,-31.6069612585582,             115P    284
-31.6069612585582,5.,0.,-1.95943487863577D-15,32.,0.,                115P    285
-27.335750277672,32.,0.,-31.6069612585582,5.,                        115P    286
1.95943487863576D-15,-1.95943487863576D-15,32.,27.335750277672,      115P    287
-27.335750277672,32.,31.6069612585582,-31.6069612585582,5.,          115P    288
1.95943487863577D-15,0.,32.,27.335750277672,0.,32.,                  115P    289
31.6069612585582,0.,5.,1.95943487863576D-15,                         115P    290
1.95943487863576D-15,32.,27.335750277672,27.335750277672,32.,        115P    291
31.6069612585582,31.6069612585582,5.,0.,1.95943487863577D-15,        115P    292
32.,0.,27.335750277672,32.,0.,31.6069612585582,5.,                   115P    293
-1.95943487863576D-15,1.95943487863576D-15,32.,-27.335750277672,     115P    294
27.335750277672,32.,-31.6069612585582,31.6069612585582,5.,           115P    295
-1.95943487863577D-15,0.,32.,-27.335750277672,0.,32.,                115P    296
-31.6069612585582,0.,5.,0.156892871020461,1.5707963267949,           115P    297
-3.14159265358979,3.14159265358979;                                  115P    298
128,1,1,1,1,0,0,1,0,0,-5.403,-5.403,0.273000000000001,               117P    299
0.273000000000001,-2.838,-2.838,2.838,2.838,1.,1.,1.,1.,28.38,       117P    300
-28.38,0.,-28.38,-28.38,0.,28.38,28.38,0.,-28.38,28.38,0.,           117P    301
-5.403,0.273000000000001,-2.838,2.838;                               117P    302
502,15,-31.95,-3.91274652327579D-15,2.794,-32.05,                    119P    303
3.92499299126727D-15,2.694,-28.47,3.48656943717251D-15,2.794,        119P    304
28.47,0.,2.794,-32.05,3.92499299126727D-15,0.,28.37,0.,2.694,        119P    305
-28.37,-3.47432296918104D-15,2.694,-28.37,3.47432296918104D-15,      119P    306
0.,-37.,4.53119315684521D-15,0.,-37.,4.53119315684521D-15,5.,        119P    307
3.87073639360677D-15,-31.6069612585582,5.,-31.6069612585582,0.,      119P    308
5.,-25.65,0.,0.,-1.57060951990648D-15,0.,25.65,                      119P    309
-1.95943487863577D-15,0.,32.;                                        119P    310
504,20,57,119,1,119,1,59,119,1,119,2,61,119,2,119,2,63,119,3,        121P    311
119,4,65,119,4,119,3,67,119,5,119,5,69,119,5,119,2,71,119,4,119,     121P    312
6,73,119,6,119,7,75,119,7,119,6,77,119,8,119,8,79,119,8,119,7,       121P    313
81,119,9,119,9,83,119,10,119,10,85,119,11,119,12,87,119,12,119,      121P    314
11,89,119,10,119,9,91,119,13,119,13,93,119,14,119,13,95,119,15,      121P    315
119,12;                                                              121P    316
406,1,5HBody1;                                                       123P    317
314,62.7450980392157,62.7450980392157,62.7450980392157,13HSteel      125P    318
- Satin;                                                             125P    319
S      1G      3D    126P    319                                        T      1
